# xmcd
#
# Track frame offsets:
# 150
# 23242
# 38731
# 54840
# 68468
# 82231
# 97130
# 109690
# 131436
# 144594
# 158787
#
# Disc length: 2348 seconds
#
#
# Revision: 0
# Processed by: cddbd v1.5.2PL0 Copyright (c) Steve Scherf et al.
# Submitted via: FreeRIP 2.951 
#
DISCID=8c092a0b
DTITLE=Zé - Soulution orchestra
DYEAR=2006
DGENRE=Blues
TTITLE0=King of Swing
TTITLE1=Cant take my eyes off of you
TTITLE2=Brand new Cadillac
TTITLE3=I say a little Prayer
TTITLE4=Mack the knife
TTITLE5=For once i my life
TTITLE6=Americano
TTITLE7=You ve made me so very happy
TTITLE8=Unchain my heart
TTITLE9=Getting in the mood
TTITLE10=Strange Kind of woman
EXTD=
EXTT0=
EXTT1=
EXTT2=
EXTT3=
EXTT4=
EXTT5=
EXTT6=
EXTT7=
EXTT8=
EXTT9=
EXTT10=
PLAYORDER=
